<svg width="214" height="40" viewBox="0 0 214 40" fill="none" xmlns="http://www.w3.org/2000/svg">
<g clip-path="url(#clip0_342_13)">
<path d="M51.8774 1.69958H57.1918V30.7517H65.9363V35.5938H51.8774V1.69958Z" fill="white"/>
<path d="M75.9777 36.0779C73.3688 36.0779 71.372 35.3355 69.9869 33.8505C68.602 32.3656 67.9096 30.2675 67.9096 27.5559V9.73729C67.9096 7.02576 68.602 4.92755 69.9869 3.44267C71.372 1.95777 73.3688 1.21533 75.9777 1.21533C78.5865 1.21533 80.5834 1.95777 81.9684 3.44267C83.3533 4.92755 84.0457 7.02576 84.0457 9.73729V27.5559C84.0457 30.2675 83.3533 32.3656 81.9684 33.8505C80.5834 35.3355 78.5865 36.0779 75.9777 36.0779ZM75.9777 31.2359C77.8135 31.2359 78.7315 30.1221 78.7315 27.8948V9.39835C78.7315 7.17101 77.8135 6.05735 75.9777 6.05735C74.1418 6.05735 73.2238 7.17101 73.2238 9.39835V27.8948C73.2238 30.1221 74.1418 31.2359 75.9777 31.2359Z" fill="white"/>
<path d="M95.1764 36.0779C92.5998 36.0779 90.6351 35.3516 89.2823 33.8989C87.9296 32.4141 87.2532 30.2997 87.2532 27.5559V9.73729C87.2532 6.99348 87.9296 4.89527 89.2823 3.44267C90.6351 1.95777 92.5998 1.21533 95.1764 1.21533C97.7531 1.21533 99.7178 1.95777 101.07 3.44267C102.423 4.89527 103.1 6.99348 103.1 9.73729V12.6425H98.0752V9.39835C98.0752 7.17101 97.1572 6.05735 95.3213 6.05735C93.4856 6.05735 92.5676 7.17101 92.5676 9.39835V27.9433C92.5676 30.1384 93.4856 31.2359 95.3213 31.2359C97.1572 31.2359 98.0752 30.1384 98.0752 27.9433V21.3097H95.418V16.4677H103.1V27.5559C103.1 30.2997 102.423 32.4141 101.07 33.8989C99.7178 35.3516 97.7531 36.0779 95.1764 36.0779Z" fill="white"/>
<path d="M114.193 36.0779C111.584 36.0779 109.588 35.3355 108.203 33.8505C106.818 32.3656 106.125 30.2675 106.125 27.5559V9.73729C106.125 7.02576 106.818 4.92755 108.203 3.44267C109.588 1.95777 111.584 1.21533 114.193 1.21533C116.802 1.21533 118.799 1.95777 120.184 3.44267C121.569 4.92755 122.261 7.02576 122.261 9.73729V27.5559C122.261 30.2675 121.569 32.3656 120.184 33.8505C118.799 35.3355 116.802 36.0779 114.193 36.0779ZM114.193 31.2359C116.029 31.2359 116.947 30.1221 116.947 27.8948V9.39835C116.947 7.17101 116.029 6.05735 114.193 6.05735C112.357 6.05735 111.439 7.17101 111.439 9.39835V27.8948C111.439 30.1221 112.357 31.2359 114.193 31.2359Z" fill="white"/>
<path d="M125.866 1.69958H131.18V35.5938H125.866V1.69958Z" fill="white"/>
<path d="M135.16 1.69958H142.986C145.627 1.69958 147.608 2.40974 148.929 3.83008C150.25 5.2504 150.91 7.33247 150.91 10.0763V13.4173C150.91 16.1611 150.25 18.2431 148.929 19.6635C147.608 21.0838 145.627 21.7939 142.986 21.7939H140.474V35.5938H135.16V1.69958ZM142.986 16.9519C143.856 16.9519 144.5 16.7098 144.919 16.2257C145.37 15.7414 145.595 14.9183 145.595 13.7562V9.73734C145.595 8.57525 145.37 7.75211 144.919 7.26791C144.5 6.78371 143.856 6.54161 142.986 6.54161H140.474V16.9519H142.986Z" fill="white"/>
<path d="M160.893 36.0779C158.317 36.0779 156.368 35.3516 155.047 33.8989C153.727 32.4141 153.066 30.2997 153.066 27.5559V25.6191H158.091V27.9433C158.091 30.1384 159.009 31.2359 160.845 31.2359C161.747 31.2359 162.423 30.9776 162.874 30.4612C163.357 29.9124 163.599 29.0408 163.599 27.8464C163.599 26.4261 163.277 25.1833 162.633 24.1181C161.989 23.0205 160.797 21.7132 159.057 20.196C156.867 18.2592 155.337 16.5161 154.467 14.9667C153.598 13.3849 153.163 11.6095 153.163 9.64045C153.163 6.9612 153.839 4.89527 155.192 3.44267C156.545 1.95777 158.51 1.21533 161.087 1.21533C163.631 1.21533 165.548 1.95777 166.835 3.44267C168.156 4.89527 168.816 6.99348 168.816 9.73729V11.1415H163.792V9.39835C163.792 8.23627 163.567 7.39697 163.116 6.88049C162.665 6.33173 162.005 6.05735 161.135 6.05735C159.363 6.05735 158.478 7.13873 158.478 9.30151C158.478 10.5281 158.8 11.6741 159.444 12.7393C160.12 13.8045 161.328 15.0957 163.068 16.6129C165.29 18.5497 166.819 20.3091 167.658 21.8908C168.494 23.4725 168.913 25.3285 168.913 27.4591C168.913 30.2352 168.22 32.3656 166.835 33.8505C165.482 35.3355 163.502 36.0779 160.893 36.0779Z" fill="white"/>
<path d="M179.691 36.0779C177.114 36.0779 175.149 35.3517 173.796 33.899C172.443 32.4142 171.767 30.2998 171.767 27.5559V1.69958H177.082V27.9434C177.082 29.1054 177.307 29.9447 177.758 30.4613C178.241 30.9777 178.918 31.2359 179.786 31.2359C180.657 31.2359 181.316 30.9777 181.767 30.4613C182.25 29.9447 182.492 29.1054 182.492 27.9434V1.69958H187.613V27.5559C187.613 30.2998 186.937 32.4142 185.584 33.899C184.231 35.3517 182.266 36.0779 179.691 36.0779Z" fill="white"/>
<path d="M191.398 1.69958H198.984L202.365 25.9581H202.461L205.844 1.69958H213.429V35.5938H208.404V9.93102H208.308L204.442 35.5938H199.997L196.133 9.93102H196.037V35.5938H191.398V1.69958Z" fill="white"/>
<path d="M0.571411 35.5938C7.10943 35.5938 12.4095 30.2818 12.4095 23.7292C12.4095 17.1766 7.10943 11.8646 0.571411 11.8646V20.1698C2.5328 20.1698 4.12281 21.7634 4.12281 23.7292C4.12281 25.695 2.5328 27.2886 0.571411 27.2886V35.5938Z" fill="white"/>
<path d="M40.0317 15.8195C38.0087 15.1772 35.8545 14.8307 33.6193 14.8307C21.9054 14.8307 12.4095 24.348 12.4095 36.088C12.4095 37.2664 12.5052 38.4224 12.6891 39.5486H25.8675C25.3971 38.4915 25.1355 37.3204 25.1355 36.088C25.1355 31.392 28.9338 27.5851 33.6193 27.5851C36.1803 27.5851 38.4761 28.7223 40.0317 30.5203V15.8195Z" fill="white"/>
<path d="M2.65277 0C3.63423 8.89832 11.1615 15.8195 20.3015 15.8195C29.4415 15.8195 36.9688 8.89832 37.9502 0H25.2513C24.4673 1.96973 22.5465 3.36161 20.3015 3.36161C18.0564 3.36161 16.1358 1.96973 15.3517 0H2.65277Z" fill="white"/>
</g>
<defs>
<clipPath id="clip0_342_13">
<rect width="212.857" height="40" fill="white" transform="translate(0.571411)"/>
</clipPath>
</defs>
</svg>
