<svg width="160" height="160" viewBox="0 0 160 160" fill="none" xmlns="http://www.w3.org/2000/svg">
<path d="M55.8723 80.0005L71.939 96.1339L104.139 63.8672" stroke="#3A3A3A" stroke-width="5" stroke-linecap="round" stroke-linejoin="round"/>
<path d="M71.6723 16.3323C76.2723 12.399 83.8056 12.399 88.4723 16.3323L99.0056 25.399C101.006 27.1323 104.739 28.5323 107.406 28.5323H118.739C125.806 28.5323 131.606 34.3323 131.606 41.399V52.7323C131.606 55.3323 133.006 59.1323 134.739 61.1323L143.806 71.6657C147.739 76.2657 147.739 83.799 143.806 88.4657L134.739 98.999C133.006 100.999 131.606 104.732 131.606 107.399V118.732C131.606 125.799 125.806 131.599 118.739 131.599H107.406C104.806 131.599 101.006 132.999 99.0056 134.732L88.4723 143.799C83.8723 147.732 76.339 147.732 71.6723 143.799L61.139 134.732C59.139 132.999 55.4056 131.599 52.739 131.599H41.2056C34.139 131.599 28.339 125.799 28.339 118.732V107.332C28.339 104.732 26.939 100.999 25.2723 98.999L16.2723 88.399C12.4056 83.799 12.4056 76.3323 16.2723 71.7323L25.2723 61.1323C26.939 59.1323 28.339 55.399 28.339 52.799V41.3323C28.339 34.2657 34.139 28.4657 41.2056 28.4657H52.739C55.339 28.4657 59.139 27.0657 61.139 25.3323L71.6723 16.3323Z" stroke="#3A3A3A" stroke-width="5" stroke-linecap="round" stroke-linejoin="round"/>
</svg>
